<?xml version="1.0" encoding="utf-8"?>
<!-- Generator: Adobe Illustrator 24.0.0, SVG Export Plug-In . SVG Version: 6.00 Build 0)  -->
<svg version="1.1" xmlns="http://www.w3.org/2000/svg" xmlns:xlink="http://www.w3.org/1999/xlink" x="0px" y="0px"
	 viewBox="0 0 600 600" style="enable-background:new 0 0 600 600;" xml:space="preserve">
<style type="text/css">
	.st0{fill:#EFE6D9;}
	.st1{opacity:0.2;}
	.st2{fill:#ED4A2F;}
	.st3{opacity:0.3;}
	.st4{fill:#F7BC4B;}
	.st5{fill:#FFFFFF;}
	.st6{opacity:0.1;}
	.st7{fill:#363E4F;}
	.st8{fill:#FFB68D;}
	.st9{fill:#65A9DF;}
	.st10{fill:#A36140;}
	.st11{opacity:0.5;}
</style>
<g id="Background_x5F_Simple">
	<g>
		<path class="st0" d="M378.64,137.35c0,0,15.9-51.32-29.56-57.73c-45.46-6.41-81.44,29.56-89.81,62.48c0,0-8.65-10.32-26.78,0.56
			c-18.13,10.88-22.59,31.8-22.59,31.8s-7.25-10.32-22.87-1.95c-15.62,8.37-27.89,37.65-22.59,65.82c0,0-55.5,33.47-55.5,40.44
			c0,6.97,54.95-27.89,54.95-27.89s-6.97,13.67-2.79,15.62c4.18,1.95,103.48-45.46,103.48-45.46s-8.93,10.6-3.63,11.71
			c5.3,1.12,64.15-15.34,89.53-28.45c25.38-13.11,47.14-29.84,50.48-35.14c3.35-5.3-10.04-1.95-10.04-1.95s34.03-18.97,37.1-24.27
			S411.27,114.47,378.64,137.35z"/>
		<path class="st0" d="M463.99,315.29c0,0,2.51-46.86,34.31-58.99c31.8-12.13,46.86,12.97,45.18,28.87c0,0,7.81-0.84,19.24,3.63
			c11.44,4.46-30.96,22.87-30.96,22.87s18.13-4.18,20.08-0.84c1.95,3.35-143.36,61.36-146.15,60.8
			c-2.79-0.56,23.71-16.73,23.71-16.73s-9.2,0.84-6.14-5.86c3.07-6.69,14.5-5.02,14.5-5.02s-10.88-13.11,1.39-27.33
			C451.44,302.46,463.99,315.29,463.99,315.29z"/>
		<path class="st0" d="M172.18,319.06c0,0-8.58,6.9-8.99,8.47c-0.42,1.57,41.94-19.98,42.46-20.81s-3.24-6.9-12.03-1.26
			c0,0,0-11.19-10.04-8.16C173.54,300.33,170.82,309.43,172.18,319.06z"/>
	</g>
</g>
<g id="layer_x5F_GROUND">
	<g>
		<g>
			<g>
				<path class="st0" d="M340.99,375.54c-39.33-0.66-91.2,3.35-100.69,5.58c-9.48,2.23,3.07,7.25,3.07,7.25s-43.51,6.97-53.55,11.71
					c-10.04,4.74,33.19,9.76,33.19,9.76s-13.11,0.56-15.34,2.79s11.16,4.74,11.16,4.74s-46.58,9.2-54.95,13.39
					c-8.37,4.18,15.06,7.81,15.06,7.81s-96.22,20.08-126.63,40.72s38.21,42.39,126.35,41.84s155.63-7.25,182.41-10.88
					c26.78-3.63,3.9-6.14,3.9-6.14s62.48-11.71,89.81-20.08c27.33-8.37,20.36-22.59-22.31-29.29c0,0,29.01-9.2,33.19-14.5
					c4.18-5.3-46.3-15.06-46.3-15.06s44.35-5.3,56.9-14.78C488.81,400.92,424.66,376.93,340.99,375.54z"/>
			</g>
			<g>
				<path class="st0" d="M54.34,484.1c0,0-4.24-10.09-9.06-11.81s4.47,10.32,4.47,10.32s-4.7-2.29-8.37-1.49
					C37.71,481.92,43.1,486.73,54.34,484.1z"/>
			</g>
			<path class="st1" d="M149.68,499.46c-21.1,0-19.96,6.19,2.29,6.65C174.23,506.57,175.14,499.46,149.68,499.46z"/>
			<path class="st1" d="M332.06,393.39c-49.1-0.32-66.66,9.48-72.52,13.11c-5.86,3.63,74.19,11.99,100.69,10.32
				c26.5-1.67-6.69-7.53-6.69-7.53s42.67,0.56,47.42-3.07C405.69,402.59,374.74,393.67,332.06,393.39z"/>
			<path class="st1" d="M324.81,440.52c-51.32,0-81.44,6.97-86.74,8.37s20.08,7.81,20.08,7.81s-61.64,4.46-93.44,13.39
				s71.4,27.33,127.74,22.31c56.34-5.02,92.04-17.01,95.11-19.52s-18.41-8.37-18.41-8.37s37.65-0.84,44.07-5.86
				S362.18,440.52,324.81,440.52z"/>
			<path class="st1" d="M179.29,462.56c-18.83-0.42-51.88,1.88-68.61,3.56c-16.73,1.67-36.61,17.99-30.54,21.76
				c6.07,3.77,41.42-1.67,51.25-2.72c9.83-1.05,65.27-7.11,70.08-8.99s-16.53-6.69-16.53-6.69L179.29,462.56z"/>
			<path class="st1" d="M212.55,490.8c-10.67,0.77-25.52,4.6-29.08,6.28c-3.56,1.67,44.97,10.25,79.07,5.44
				C296.64,497.7,256.06,487.66,212.55,490.8z"/>
			<path class="st1" d="M305.84,455.58c-33.47,0-29.56,7.53,6.97,7.53S349.35,455.58,305.84,455.58z"/>
			<path class="st1" d="M330.11,472.88c-17.85,0-12.27,4.74-1.39,4.74C339.59,477.62,358.84,472.88,330.11,472.88z"/>
			<path class="st1" d="M338.76,405.52c-11.99,0-9.9,4.04-0.84,4.04C346.98,409.56,349.77,405.52,338.76,405.52z"/>
			<path class="st1" d="M387.57,428.25c-16.18,0-17.01,7.95,3.07,7.95C410.72,436.2,411.83,428.25,387.57,428.25z"/>
			<path class="st0" d="M430.8,503c-10.87,0.29-18.55,3.21-20.5,5.02c-1.95,1.81,13.11,4.18,23.57,3.63
				c10.46-0.56,18.69-3.77,19.94-5.3C455.06,504.81,441.4,502.72,430.8,503z"/>
			<path class="st0" d="M496.62,499.09c-10.05,0.58-12.27,5.02-12.13,6c0.14,0.98,8.93,2.09,16.32,0.84s9.48-2.23,9.48-3.35
				C510.29,501.46,503.87,498.68,496.62,499.09z"/>
			<path class="st0" d="M487.14,456.28c-8.64,0.27-13.53,1.53-14.92,2.51c-1.39,0.98,6.28,3.21,13.67,3.07s10.46-0.98,13.11-2.23
				C501.64,458.37,491.6,456.14,487.14,456.28z"/>
			<path class="st0" d="M488.11,469.11c-3.9,0-5.72,3.35,1.53,3.35S495.92,469.11,488.11,469.11z"/>
			<path class="st0" d="M468.87,485.29c-10.46,0-9.48,6,2.51,6S484.49,485.29,468.87,485.29z"/>
		</g>
	</g>
</g>
<g id="layer_x5F_MEDIA_PLAYER">
	<g>
		<g>
			<path class="st2" d="M208.37,174.3c-0.42,0.57-3.21,3.77-6.28,3.21c-3.07-0.56-4.33-3.91-4.33-4.47c0-0.06,0.04-0.19,0.11-0.39
				c0.65-1.79,3.87-8.89,4.49-14.53c0.7-6.28,1.53-28.03,1.53-28.03c3.8-4.51,6.37-2.85,7.74-1.03c0.79,1.04,1.19,2.15,1.19,2.15
				s-3.21,14.78-4.47,24.96C207.11,166.35,208.78,173.74,208.37,174.3z"/>
			<path class="st3" d="M208.37,174.3c-0.42,0.57-3.21,3.77-6.28,3.21c-3.07-0.56-4.33-3.91-4.33-4.47c0-0.06,0.04-0.19,0.11-0.39
				c1.16-0.35,3.77-1.03,5.4-0.65c2.09,0.48,2.57,0.48,2.57,0.48s-0.7-7.81-0.34-14.99c0.29-5.95,4.65-22.83,6.14-28.43
				c0.79,1.04,1.19,2.15,1.19,2.15s-3.21,14.78-4.47,24.96C207.11,166.35,208.78,173.74,208.37,174.3z"/>
		</g>
		<g>
			<path class="st2" d="M223.42,391.86c0,0-7.32-0.11-8.68-0.11c-1.36,0-6.69-34.94-8.58-42.99c-1.29-5.52-3.27-13.1-4.39-17.66
				c-0.52-2.1-0.84-3.56-0.84-3.88c0-1.04,1.47-4.18,1.47-4.18l-2.3-2.52c0,0,0.42-25.83-1.46-36.5c-1.88-10.67-4.08-14.64-4.29-16
				c-0.2-1.36,2.1-5.13,2.1-5.13s-0.08-0.1-0.23-0.26c-0.57-0.66-2.06-2.47-2.55-3.79c-0.09-0.24-0.15-0.45-0.16-0.65
				c-0.11-1.57,0.73-14.44,0.63-20.19c-0.11-5.75-2.1-12.97-2.1-14.75s4.08-5.55,4.08-5.55s-1.93-2.36-2.4-4.05
				c-0.06-0.16-0.09-0.31-0.11-0.45c-0.21-1.67,3.34-15.58,3.24-21.44c-0.11-5.85,0.2-14.43,0.2-14.43s1.67-2.83,4.81-2.83
				c1.39,0,2.66,0.64,3.65,1.35c1.23,0.88,2.01,1.89,2.01,1.89s-2.3,7.95-2.3,16s1.78,21.55,1.15,22.17
				c-0.62,0.63-3.24,1.68-3.24,1.68s3.45,3.24,3.45,4.28c0,1.05-2.2,14.02-2.2,20.71c0,6.69,1.46,16,1.46,16.84
				c0,0.84-1.78,3.14-1.78,3.14s2.83,3.66,2.83,4.08c0,0.42,1.78,27.92,2.52,36.39c0.73,8.47,2.82,18.2,2.82,18.2l-1.36,1.88
				l2.41,2.2c0,0,2.83,23.22,4.18,30.85c1.36,7.64,7.96,26.78,8.79,27.82C227.09,385.05,223.42,391.86,223.42,391.86z"/>
			<path class="st3" d="M205.23,193.76c0,8.05,1.78,21.55,1.15,22.17c-0.62,0.63-3.24,1.68-3.24,1.68c-4.66-1-7.01,0.1-7.01,0.1
				s-1.93-2.36-2.4-4.05c6.05-0.89,8.99-0.17,8.99-0.17s-0.07-10.45-0.2-20.22c-0.11-7.55,2.03-14.6,3.02-17.4
				c1.23,0.88,2.01,1.89,2.01,1.89S205.23,185.7,205.23,193.76z"/>
			<path class="st3" d="M223.42,391.86c0,0-0.59-0.01-1.46-0.02c-2.21-0.02-6.24-0.08-7.22-0.08c-1.36,0-6.69-34.94-8.58-42.99
				c-1.29-5.52-3.27-13.1-4.39-17.66c3.83-0.72,7.14-1.43,7.14-1.72c0-0.2-0.25-2.29-0.57-5.37c-0.78-7.36-2.05-20.42-1.65-27.4
				c0.56-9.9-5.44-35.14-5.44-35.14l-4.19,1.11l-0.85,0.05c-0.57-0.66-2.06-2.47-2.55-3.79c4.35-2.06,8.84-1.28,8.84-1.28
				s-0.42-3.76-1.53-12.13c-1.11-8.37,2.16-27.82,2.16-27.82s3.45,3.24,3.45,4.28c0,1.05-2.2,14.02-2.2,20.71
				c0,6.69,1.46,16,1.46,16.84c0,0.84-1.78,3.14-1.78,3.14s2.83,3.66,2.83,4.08c0,0.42,1.78,27.92,2.52,36.39
				c0.73,8.47,2.82,18.2,2.82,18.2l-1.36,1.88l1.7,1.56l0.7,0.65c0,0,0.36,2.95,0.88,7.09c0.95,7.48,2.43,18.85,3.3,23.76
				c1.36,7.64,7.96,26.78,8.79,27.82C227.09,385.05,223.42,391.86,223.42,391.86z"/>
			<path class="st3" d="M221.97,391.83c-2.21-0.02-6.24-0.08-7.22-0.08c-1.36,0-6.69-34.94-8.58-42.99
				c-1.29-5.52-3.27-13.1-4.39-17.66c3.83-0.72,7.14-1.43,7.14-1.72c0-0.2-0.25-2.29-0.57-5.37l4.23,0.69l0.7,0.65
				c0,0,0.36,2.95,0.88,7.09c-3.12,2.89-7.32,5.32-7.32,5.32s6.76,23.78,8.01,31.31C215.57,373.36,219.08,383.73,221.97,391.83z"/>
		</g>
		<path class="st4" d="M203.34,143.62c0,0-5.16-4.6-11.44-1.39c-6.28,3.21,4.46,3.9,11.3,3.63c6.83-0.28,14.92-3.63,15.2-7.81
			C218.68,133.86,208.5,138.6,203.34,143.62z"/>
		<path class="st4" d="M203.69,141.73c-2.6,0.63-3.07,4.72-1.26,5.33s5.09-0.56,4.53-2.56C206.41,142.5,205.99,141.17,203.69,141.73
			z"/>
		<g>
			<path class="st2" d="M531.48,128.14c0,0-5.02,10.74-6.14,15.48c-1.11,4.74-3,16.11-3.14,17.36c-0.14,1.25-1.75,3.14-1.75,3.14
				s0.84,1.11,0.84,2.37c0,1.25-4.88,9.49-6.42,15.48c-1.54,6-3.21,19.52-3.21,19.52l-2.37,3.62l0.42,4.19c0,0-0.16,0.39-0.42,1.08
				c-1.25,3.24-4.99,13.11-6.83,19.56c-2.24,7.81-3.91,26.36-3.91,28.17c0,1.82-3.9,6.42-3.9,6.42s0.84,5.44,0.84,6.83
				c0,1.4-5.44,14.36-6.69,20.92c-1.26,6.55-5.02,37.38-5.44,39.47c-0.42,2.09-3.21,8.23-3.21,8.23s0.7,2.92,1.4,4.46
				c0.7,1.54-2.1,9.63-3.63,19.8c-1.53,10.18,0.14,37.79,0.14,37.79s-1.67,4.74-3.49,5.16c-1.81,0.42-9.06,0.42-9.06,0.42
				s-2.51-3.34-2.23-5.16c0.28-1.81,3.06-16.17,3.2-23.56c0.14-7.39,1.96-30.96,1.96-32.49s2.09-8.65,2.09-8.65s-0.47-2.58-0.43-4.4
				c0-0.16,0.01-0.32,0.02-0.48c0.14-1.82,5.72-18.55,7.25-24.69c1.53-6.14,3.9-36.96,3.9-37.93s3.91-5.58,3.91-5.58l-0.7-2.92
				c0,0,0-1.81,2.37-5.44c2.38-3.63,6.55-23.99,7.82-29.42c1.25-5.44,2.65-15.21,2.65-16.32s2.37-5.3,2.37-5.3s-0.97-2.51-0.97-3.76
				c0-1.26,7.39-13.81,8.93-19.8c1.53-6,1.95-14.51,1.95-14.51l1.67-3.2l-0.14-1.67c0,0,3.07-8.09,6.28-16.88
				c3.2-8.78,6-19.94,6-19.94l3.2-2.51c3.08-0.82,4.22,1.6,4.64,3.4C531.47,127.35,531.48,128.14,531.48,128.14z"/>
			<path class="st3" d="M509.31,210.39c-1.25,3.24-4.99,13.11-6.83,19.56c-2.24,7.81-3.91,26.36-3.91,28.17
				c0,1.82-3.9,6.42-3.9,6.42s0.84,5.44,0.84,6.83c0,1.4-5.44,14.36-6.69,20.92c-1.26,6.55-5.02,37.38-5.44,39.47
				c-0.42,2.09-3.21,8.23-3.21,8.23s0.15,0.62,0.38,1.45c0.27,0.96,0.65,2.18,1.02,3.01c0.7,1.54-2.1,9.63-3.63,19.8
				c-1.53,10.18,0.14,37.79,0.14,37.79s-1.67,4.74-3.49,5.16c-1.81,0.42-9.06,0.42-9.06,0.42s-2.51-3.34-2.23-5.16
				c0.12-0.77,0.7-3.87,1.34-7.73c0.84-5.13,1.79-11.62,1.87-15.84c0.14-7.39,1.96-30.96,1.96-32.49c0-0.87,0.67-3.54,1.26-5.69
				c0.43-1.64,0.83-2.97,0.83-2.97s-0.03-0.18-0.08-0.48c-0.13-0.83-0.38-2.58-0.35-3.92l8.66-2.71c0,0,1.11-17.57,5.72-33.47
				c4.6-15.89,7.39-26.64,7.39-26.64l-0.42-6.28c-4.05,0-6.28,0.42-6.28,0.42l-0.7-2.92c0,0,8.16-1.16,12.03-21.97
				C499.42,224.18,506.13,214.34,509.31,210.39z"/>
			<path class="st3" d="M478.07,402.03c0,0-1.67,4.74-3.49,5.16c-1.81,0.42-9.06,0.42-9.06,0.42s-2.51-3.34-2.23-5.16
				c0.12-0.77,0.7-3.87,1.34-7.73c1.89-1.59,3.54-2.97,3.54-2.97s4.92-23.01,5.34-27.09c0.42-4.08,3.45-17.02,3.03-17.85
				c-0.38-0.76-5.49-4.58-6.82-6.1c0.43-1.64,0.83-2.97,0.83-2.97s-0.03-0.18-0.08-0.48h0.22l6.76,1.19l3.1,2.98
				c0.27,0.96,0.65,2.18,1.02,3.01c0.7,1.54-2.1,9.63-3.63,19.8C476.4,374.42,478.07,402.03,478.07,402.03z"/>
			<path class="st3" d="M521.31,166.49c0,1.25-4.88,9.49-6.42,15.48c-1.54,6-3.21,19.52-3.21,19.52l-2.37,3.62
				c-4.47-2.97-9.63,0.14-9.63,0.14s-0.97-2.51-0.97-3.76c3.24-2.52,8.89-1.99,8.89-1.99s3.35-15.17,4.92-20.81
				c1.57-5.65,7.95-14.58,7.95-14.58S521.31,165.24,521.31,166.49z"/>
			<path class="st3" d="M531.48,128.14c0,0-5.02,10.74-6.14,15.48c-1.11,4.74-3,16.11-3.14,17.36c-0.14,1.25-1.75,3.14-1.75,3.14
				c-4.39-2.65-9.2-0.14-9.2-0.14l-0.14-1.67c3.31-2.27,7.25-1.26,7.25-1.26s0-4.46,2.93-13.39c2.41-7.35,7.28-16.78,9.93-21.28
				C531.47,127.35,531.48,128.14,531.48,128.14z"/>
		</g>
		<g>
			<path class="st4" d="M518.92,144.05c-0.2,0.32-6.33,9.68-13.81,23.81c-9.41,17.75-21.01,43.04-25.78,67.39
				c-0.35,1.79-0.68,3.58-0.98,5.39c-7.26,42.96-2.64,92.79-2.64,92.79s-100.97,21.75-134.44,23.98
				c-33.47,2.24-129.42-30.95-129.42-30.95s3.47-19.7,6.03-44.53c1.67-16.21,2.95-34.62,2.62-51.14c-0.2-10.08-1.16-20.34-2.49-30.1
				c-0.89-6.58-1.97-12.94-3.1-18.86c-4.08-21.44-8.91-37.28-9.05-37.77c1.02,0.55,66.63,35.7,152.14,36.25
				c61.37,0.39,116.96-18.16,143.86-28.88C512.48,147.19,518.64,144.18,518.92,144.05z"/>
			<g>
				<path class="st2" d="M334.85,211.54c-35.42,0-43.79,34.86-43.79,64.43c0,29.56,15.34,50.48,38.21,50.48
					c22.87,0,51.88-15.06,51.88-51.6S361.91,211.54,334.85,211.54z"/>
				<path class="st5" d="M324.25,241.8c-0.96,1.01-3.63,53.83-0.84,56.34c2.79,2.51,31.8-20.92,33.19-23.99
					C358,271.08,326.97,238.94,324.25,241.8z"/>
			</g>
			<path class="st6" d="M336.24,342.62c-19.8,0.84-58.57-44.35-55.78-42.67c2.79,1.67,42.95,21.75,53.27,20.64
				c9.95-1.07,52.85-18.49,55.89-20.98C387.02,302.85,355.23,341.82,336.24,342.62z M478.34,240.64
				c-17.85,19.24-52.06,46.21-53.1,47.02c1.07-1.29,42.15-50.61,25.64-40.42c-16.74,10.32-68.34,35.98-47.41,22.31
				c20.75-13.56,68.14-67.48,68.88-68.32c-0.67,0.56-29.99,24.92-44.34,34.57c-14.5,9.76-92.6,53.55-104.31,51.04
				c-11.49-2.47-33.76-18.11-34.56-18.68c1.08,0.25,39.25,9.17,35.68,7.24c-3.63-1.95-44.35-22.03-55.79-35.42
				c-8.91-10.44-39.83-39.33-54.12-58.17c1.13,5.92,2.2,12.28,3.1,18.86c15.44,32.58,56.12,89.91,40.14,78.21
				c-17.15-12.54-28.45-25.51-21.75-8.37c6.69,17.16,37.24,56.07,17.57,43.51c-8.29-5.29-22.47-18.55-36.09-32.12
				c-2.56,24.82-6.03,44.53-6.03,44.53s95.95,33.19,129.42,30.95c33.47-2.23,134.44-23.98,134.44-23.98S471.08,283.6,478.34,240.64z
				"/>
			<path class="st6" d="M518.92,144.05c-0.2,0.32-6.33,9.68-13.81,23.81c-14.49,8.84-49.28,29.31-47.26,26.39
				c1.8-2.61,28.86-27.44,44.01-42.83C512.48,147.19,518.64,144.18,518.92,144.05z"/>
		</g>
		<g>
			<path class="st4" d="M525.4,143.93c0.08-0.23,7.34-5.89,8.64-6.5s10.93,1.07,10.93,1.07s-4.59,6.42-7.8,7.88
				s-12.92,0.08-12.92,0.08L525.4,143.93z"/>
			<path class="st4" d="M523.42,147.83c0,0,2.91,3.29,3.75,4.05c0.84,0.76,7.42,2.14,7.42,2.14s-0.99-3.59-2.52-5.35
				c-1.53-1.76-7.42-2.45-7.42-2.45L523.42,147.83z"/>
			<g>
				<path class="st4" d="M526.7,148.21c-1.15,2.6-5.51,4.82-5.88,4.51c-0.39-0.31-5.05-2.68-5.35-3.44
					c-0.22-0.55-0.87-2.26-0.91-3.49c-0.03-0.49,0.05-0.89,0.3-1.11c0.84-0.76,3.14-2.98,6.27-3.82c0,0,4.05-0.08,4.58,0.61
					c0,0,0,0.01,0.01,0.01C526.26,142.19,527.85,145.62,526.7,148.21z"/>
				<path class="st3" d="M526.7,148.21c-1.15,2.6-5.51,4.82-5.88,4.51c-0.39-0.31-5.05-2.68-5.35-3.44
					c-0.22-0.55-0.87-2.26-0.91-3.49c1.09,1.96,3.13,2.79,3.76,3.37c0.75,0.69,6.88-3.9,6.88-3.9l0.52-3.77
					C526.26,142.19,527.85,145.62,526.7,148.21z"/>
			</g>
		</g>
		<g>
			<path class="st4" d="M478.7,338.65c0,0,3.97,0,5.02,1.05c1.05,1.05,3.63,6.55,3.9,6.83c0.28,0.28-4.67-0.21-6.62-1.12
				s-3.9-6-3.9-6L478.7,338.65z"/>
			<path class="st4" d="M472.22,338.37c0,0-3.9,2.09-5.09,3.7c-1.19,1.6-4.18,6.83-4.18,6.83s7.11-1.12,8.23-2.16
				c1.12-1.05,3.35-7.18,3.35-7.18L472.22,338.37z"/>
			<g>
				<path class="st4" d="M480.37,336.56c-0.02,0.04-0.04,0.09-0.07,0.16c-0.02,0.05-0.06,0.1-0.08,0.15
					c-0.62,1.12-2.64,4.29-3.26,4.29c-0.7,0-5.23-0.2-5.72-0.84c-0.49-0.62-1.39-4.32-1.25-4.74c0.08-0.25,0.65-1.07,1.7-1.76
					c0.73-0.48,1.7-0.9,2.89-1.03C476.47,332.59,480.65,335.93,480.37,336.56z"/>
				<path class="st3" d="M480.22,336.86c-0.62,1.12-2.64,4.29-3.26,4.29c-0.7,0-5.23-0.2-5.72-0.84c-0.49-0.62-1.39-4.32-1.25-4.74
					c0.08-0.25,0.65-1.07,1.7-1.76c0.21,1.19,0.97,2.06,1.82,3.17c0.99,1.31,3.87,1.05,3.87,1.05l-2.86,1.52
					C474.52,339.56,478.64,339.42,480.22,336.86z"/>
			</g>
		</g>
		<g>
			<path class="st4" d="M206.27,327.56c0,0-4.32,1.05-5.86,2.37c-1.53,1.32-2.86,5.16-2.44,6.07s5.65-1.05,6.69-1.67
				c1.05-0.63,3.49-5.58,3.49-5.58L206.27,327.56z"/>
			<g>
				<path class="st4" d="M213.73,326.38c-0.34,0.77-5.02,4.53-5.65,4.25c-0.63-0.28-4.33-2.65-4.67-3.9
					c-0.1-0.34-0.06-0.97,0.08-1.66c0.39-1.82,1.52-4.17,2.92-3.57c0.48,0.21,4.46,0.7,4.46,0.7s0.61,0.65,1.26,1.43
					C212.99,324.66,213.93,325.94,213.73,326.38z"/>
				<path class="st3" d="M213.73,326.38c-0.34,0.77-5.02,4.53-5.65,4.25c-0.63-0.28-4.33-2.65-4.67-3.9
					c-0.1-0.34-0.06-0.97,0.08-1.66c1.51,1.02,4.95,1.42,5.65,1.42c0.84,0-2.72-1.2-2.72-1.2s3.45,0.26,4.55-0.2
					c0.38-0.16,0.79-0.75,1.16-1.44C212.99,324.66,213.93,325.94,213.73,326.38z"/>
			</g>
		</g>
	</g>
</g>
<g id="layer_x5F_PLANTS">
	<g>
		<g>
			<g>
				<path class="st4" d="M191.06,348.94c0.43,1.29,0.88,2.56,1.4,3.8c0.49,1.25,1.04,2.49,1.62,3.7c1.17,2.43,2.46,4.79,3.92,7.04
					c1.42,2.28,3.09,4.39,4.87,6.4l1.37,1.48l1.47,1.38l0.73,0.7l0.78,0.64c0.53,0.42,1.05,0.85,1.57,1.29
					c-2.29-1.44-4.5-3.08-6.38-5.06c-1.92-1.94-3.64-4.08-5.1-6.39c-1.47-2.3-2.76-4.71-3.81-7.22
					C192.47,354.2,191.59,351.61,191.06,348.94z"/>
				<path class="st4" d="M190.7,347.83c0,0-4.45-3.85-4.13-6.86C186.89,337.97,193.39,339.21,190.7,347.83z"/>
				<path class="st4" d="M191.78,357.56c1.87-0.88-5.95-4.8-7.47-3.59C182.8,355.17,187.06,359.77,191.78,357.56z"/>
				<path class="st4" d="M196.01,357.83c0.99,0.99,3.24-4.31,1.87-6.86c-1.37-2.55-2.49-1.22-3.34-0.24
					C193.69,351.71,194.91,356.72,196.01,357.83z"/>
				<path class="st4" d="M193.45,363.85c-2.75-0.82-6.25-1.37-6.18,0.19c0.07,1.56,3.09,4.16,6.56,3.37
					C197.3,366.62,196.98,364.9,193.45,363.85z"/>
				<path class="st4" d="M200.76,364.26c-1.41-1.18-1.41-6.19,0.48-6.69s2.68,4.54,1.28,5.93
					C201.12,364.89,200.76,364.26,200.76,364.26z"/>
			</g>
			<g>
				<path class="st4" d="M218.9,391.16c0,0-9.83-15.62-16.53-13.74s12.69,15.69,15.13,17.01s5.93-4.67,5.79-7.11
					C223.15,384.88,218.9,391.16,218.9,391.16z"/>
				<path class="st3" d="M218.9,391.16c0,0-9.83-15.62-16.53-13.74s12.69,15.69,15.13,17.01s5.93-4.67,5.79-7.11
					C223.15,384.88,218.9,391.16,218.9,391.16z"/>
			</g>
			<g>
				<path class="st4" d="M219.51,394.19c0,0-2.65-36.89,4.39-39.68c7.04-2.79-0.98,34.59-0.98,34.59s3.14-7.04,4.67-7.18
					c1.53-0.14-0.98,4.39-0.98,4.39s5.37-5.02,8.65-4.25S228.22,391.75,219.51,394.19z"/>
				<path class="st3" d="M219.51,394.19c0,0-2.65-36.89,4.39-39.68c7.04-2.79-0.98,34.59-0.98,34.59s3.14-7.04,4.67-7.18
					c1.53-0.14-0.98,4.39-0.98,4.39s5.37-5.02,8.65-4.25S228.22,391.75,219.51,394.19z"/>
			</g>
		</g>
		<g>
			<g>
				<g>
					<path class="st4" d="M467.44,407.89c0,0-19.66-1.95-29.84-4.18s0.98-12.55,17.43-4.88c0,0-7.39-8.65-5.16-13.39
						s16.32,15.9,16.32,15.9L467.44,407.89z"/>
					<path class="st3" d="M467.44,407.89c0,0-19.66-1.95-29.84-4.18s0.98-12.55,17.43-4.88c0,0-7.39-8.65-5.16-13.39
						s16.32,15.9,16.32,15.9L467.44,407.89z"/>
				</g>
				<g>
					<path class="st4" d="M471.28,402.9c0,0,5.09-34.22,16.25-35.92c11.17-1.7-7.24,28.89-7.24,28.89s9.27-12.28,15.86-12.49
						c6.59-0.21-9.87,15.03-9.87,15.03s14.87-11.51,25.7-7.53s-13.14,12.81-13.14,12.81s17.74-4.02,21.77-0.36
						c4.03,3.66-14.16,6.48-23.61,5.4c-9.44-1.08-26.42-1.67-26.42-1.67L471.28,402.9z"/>
					<path class="st3" d="M520.62,403.34c-3.86-3.5-20.29,0.04-21.68,0.34c0.8-0.3,6.89-2.63,11.29-5.34
						c0.41-1.99-0.14-4.62-5.57-5.08c-8.58-0.74-17.62,4.69-18.33,5.13c0,0,0-0.01,0.01-0.02c0.7-0.67,7.66-7.2,10.34-11.42
						c-0.54-0.09-1.33-0.08-2.45,0.09c-5.9,0.91-13.44,8.34-13.91,8.81l0.01-0.03l0.24-0.4c1.53-2.6,9.17-15.85,10.39-23.33
						c-0.95-1.39-2.69-2.01-5.88,0.34c-7.06,5.22-14.49,34.65-14.49,34.65s16.98,0.59,26.43,1.67
						C506.46,409.83,524.65,407.01,520.62,403.34z M486.31,398.4L486.31,398.4c0-0.01,0-0.01,0.01-0.01
						C486.32,398.39,486.32,398.4,486.31,398.4z"/>
				</g>
				<path class="st4" d="M468.59,411.29c0,0-6.68-9.26-4.77-14.31c1.91-5.04,5.99,8.31,5.99,8.31s1.23-12.13,7.63-12.81
					C483.85,391.81,477.72,405.43,468.59,411.29z"/>
			</g>
			<g>
				<path class="st4" d="M504.19,351.51c-5.15-0.69-4.01,9.98-2.06,10.32C504.07,362.18,509.35,352.2,504.19,351.51z"/>
				<path class="st4" d="M507.86,364.36c-3.53,0.21-7,6.88-1.61,8.37C511.64,374.22,513.71,364.02,507.86,364.36z"/>
				<path class="st4" d="M517.22,348.46c-3.67-0.71-6.32,5.63-4.2,7.22C515.14,357.27,523.58,349.7,517.22,348.46z"/>
				<path class="st4" d="M488.18,385.89c1.32-2.92,2.93-5.71,4.66-8.41c1.73-2.71,3.65-5.28,5.66-7.78
					c2.05-2.47,4.21-4.86,6.54-7.07c2.3-2.24,4.81-4.26,7.41-6.13c-1.17,1.1-2.42,2.09-3.55,3.23l-1.74,1.64
					c-0.57,0.56-1.11,1.14-1.67,1.71c-1.12,1.13-2.18,2.32-3.27,3.48c-1.03,1.21-2.1,2.4-3.08,3.65c-2.05,2.44-3.95,5-5.78,7.62
					c-0.92,1.3-1.8,2.63-2.67,3.98C489.82,383.14,488.99,384.51,488.18,385.89z"/>
				<path class="st4" d="M496.65,368.42c2.54-0.53,1.88-7.64-2.09-7.53C490.58,361,491.63,369.47,496.65,368.42z"/>
				<path class="st4" d="M494.35,380.14c-1.25-1.88,7.53-6.48,9.52-2.51C505.86,381.6,497.7,385.16,494.35,380.14z"/>
			</g>
			<g>
				<path class="st4" d="M463.15,391.71c0,0-8.37-12.55-5.16-20.36C461.2,363.54,464.96,381.53,463.15,391.71z"/>
				<path class="st3" d="M463.15,391.71c0,0-8.37-12.55-5.16-20.36C461.2,363.54,464.96,381.53,463.15,391.71z"/>
			</g>
		</g>
	</g>
	<path d="M486.4,398.33c-0.03,0.02-0.05,0.04-0.07,0.06h-0.01l0.02-0.02L486.4,398.33z"/>
</g>
<g id="layer_x5F_STARS">
	<g>
		<path class="st4" d="M468.87,135.95c0,0-0.56,6.21-5.58,7.81c0,0,6,2.3,5.86,8.09c0,0,0.42-5.3,5.65-7.81
			C474.8,144.04,468.59,141.88,468.87,135.95z"/>
		<path class="st4" d="M282.07,134.28c0,0-0.56,6.21-5.58,7.81c0,0,6,2.3,5.86,8.09c0,0,0.42-5.3,5.65-7.81
			C287.99,142.37,281.79,140.2,282.07,134.28z"/>
		<path class="st4" d="M502.97,311.87c0,0-0.56,6.21-5.58,7.81c0,0,6,2.3,5.86,8.09c0,0,0.42-5.3,5.65-7.81
			C508.89,319.96,502.69,317.8,502.97,311.87z"/>
		<path class="st5" d="M250.69,174.16c0,0-0.56,6.21-5.58,7.81c0,0,6,2.3,5.86,8.09c0,0,0.42-5.3,5.65-7.81
			C256.62,182.25,250.41,180.09,250.69,174.16z"/>
		<path class="st5" d="M266.17,317.66c0,0-0.56,6.21-5.58,7.81c0,0,6,2.3,5.86,8.09c0,0,0.42-5.3,5.65-7.81
			C272.1,325.75,265.89,323.59,266.17,317.66z"/>
		<path class="st5" d="M449.41,176.67c0,0-0.56,6.21-5.58,7.81c0,0,6,2.3,5.86,8.09c0,0,0.42-5.3,5.65-7.81
			C455.34,184.76,449.14,182.6,449.41,176.67z"/>
		<path class="st5" d="M426.82,303.86c0,0-0.56,6.21-5.58,7.81c0,0,6,2.3,5.86,8.09c0,0,0.42-5.3,5.65-7.81
			C432.75,311.94,426.54,309.78,426.82,303.86z"/>
		<path class="st5" d="M228.81,179.95c0,0-0.28,3.16-2.84,3.97c0,0,3.05,1.17,2.98,4.12c0,0,0.21-2.7,2.87-3.97
			C231.83,184.06,228.67,182.96,228.81,179.95z"/>
		<path class="st5" d="M260.4,203.59c0,0-0.28,3.16-2.84,3.97c0,0,3.05,1.17,2.98,4.12c0,0,0.21-2.7,2.87-3.97
			C263.41,207.7,260.26,206.6,260.4,203.59z"/>
		<path class="st5" d="M248.68,307.34c0,0-0.28,3.16-2.84,3.97c0,0,3.05,1.17,2.98,4.12c0,0,0.21-2.7,2.87-3.97
			C251.7,311.46,248.54,310.36,248.68,307.34z"/>
		<path class="st5" d="M428.58,211.54c0,0-0.28,3.16-2.84,3.97c0,0,3.05,1.17,2.98,4.12c0,0,0.21-2.7,2.87-3.97
			C431.6,215.65,428.44,214.55,428.58,211.54z"/>
		<path class="st5" d="M396.79,329.93c0,0-0.28,3.16-2.84,3.97c0,0,3.05,1.17,2.98,4.12c0,0,0.21-2.7,2.87-3.97
			C399.8,334.05,396.64,332.95,396.79,329.93z"/>
		<path class="st4" d="M168.02,276.66c0,0-0.27,2.97-2.67,3.74c0,0,2.87,1.1,2.8,3.87c0,0,0.2-2.53,2.7-3.74
			C170.85,280.53,167.88,279.49,168.02,276.66z"/>
		<path class="st4" d="M185.62,286.86c0,0-0.17,1.91-1.72,2.41c0,0,1.85,0.71,1.81,2.5c0,0,0.13-1.64,1.74-2.41
			C187.45,289.35,185.53,288.69,185.62,286.86z"/>
	</g>
</g>
<g id="layer_x5F_CHARACTER1">
	<g id="left_calf">
		<g>
			<path class="st7" d="M174.9,465.49c0,0,0,5.44,0.84,6.8c0.84,1.36,5.33,5.02,6.48,5.65c1.15,0.63,5.54-0.31,5.54-0.31l-0.1-5.13
				c0,0,3.87-0.84,5.13-1.67c1.26-0.84,7.22-10.15,7.32-14.33c0.1-4.18-16.84,2.82-16.84,2.82L174.9,465.49z"/>
			<g>
				<path class="st8" d="M188.7,461.72c0,0-5.13,6.18-7.01,7.32c-1.88,1.15-6.18,0.11-6.18,0.11l-2.4-6.49
					c0,0-28.45-26.56-30.96-31.69c-2.51-5.12,14.33-29.49,14.33-29.49s4.86,10.66,10.25,22.47c6.14,13.43,12.99,28.33,14.22,30.67
					c0.97,1.85,2.5,3.41,3.94,4.58C186.88,460.81,188.7,461.72,188.7,461.72z"/>
				<path class="st3" d="M188.7,461.72c0,0-5.13,6.18-7.01,7.32c-1.88,1.15-6.18,0.11-6.18,0.11l-2.4-6.49
					c0,0-28.45-26.56-30.96-31.69c-2.51-5.12,14.33-29.49,14.33-29.49s4.86,10.66,10.25,22.47c-0.31,6.78-1.05,13.83-1.05,14.49
					c0,1.11,7.96,16.87,9.21,18.41c0.72,0.88,5.8,1.76,10,2.34C186.88,460.81,188.7,461.72,188.7,461.72z"/>
			</g>
		</g>
	</g>
	<g id="right_thigh">
		<g>
			<path class="st7" d="M169.46,393.53c0,2.72-12.34,61.08-12.34,61.08l-29.71-37.65c0,0,6.42-12.82,12-23.83
				c3.99-7.87,7.55-14.8,8.08-15.49c1.25-1.68,7.32-4.4,8.58-4.4c1.25,0,10.88,3.56,12.13,5.65c0.66,1.09,0.97,4.27,1.11,7.46
				C169.46,389.27,169.46,392.22,169.46,393.53z"/>
			<path class="st3" d="M169.46,393.53c0,2.72-12.34,61.08-12.34,61.08l-29.71-37.65c0,0,6.42-12.82,12-23.83l26.28,0.19
				c0,0,1.9-3.29,3.63-6.97C169.46,389.27,169.46,392.22,169.46,393.53z"/>
		</g>
	</g>
	<g id="body">
		<g>
			<path class="st4" d="M164.85,463.6c0,0-37.66,25.31-48.95,26.77c-11.3,1.47-45.18,2.72-53.34-2.3
				c-8.16-5.01-11.92-13.81-12.34-20.5c-0.42-6.69,6.06-30.54,6.06-30.54s-2.17-11.61-2.77-25.23c-0.34-7.93-0.16-16.54,1.3-23.93
				c1.4-7.06,2.91-13.21,5.1-18.29c4.03-9.39,10.36-15.17,22.51-16.44c8.32-0.87,18.91,0.4,26.64,2.1
				c5.29,1.17,9.24,2.53,10.18,3.56c2.3,2.51,11.93,26.56,12.55,32.42c0.1,0.88,0.06,2.02-0.08,3.29c-0.75,7.23-4.52,19.3-4.52,19.3
				s24.48,11.92,29.49,20.92C161.71,443.73,164.85,463.6,164.85,463.6z"/>
			<path class="st3" d="M109.07,355.25c-2.38,5.18-7.06,11.04-16.18,13.59c-12.9,3.6-26.38,1.97-32.97,0.75
				c4.03-9.39,10.36-15.17,22.51-16.44C90.75,352.28,101.35,353.55,109.07,355.25z"/>
			<path class="st3" d="M164.85,463.6c0,0-37.66,25.31-48.95,26.77c-11.3,1.47-45.18,2.72-53.34-2.3
				c-8.16-5.01-11.92-13.81-12.34-20.5c-0.42-6.69,6.06-30.54,6.06-30.54s-2.17-11.61-2.77-25.23c3.9,14.2,13.99,27.45,13.99,27.45
				l-6.97,0.14c0,0,2.38,25.8,5.44,30.54c3.07,4.74,29.15,5.57,34.58,4.18c5.44-1.39,23.99-20.78,23.99-20.78l-8.09-20.36
				l-14.78,7.11l-14.37-0.84c0,0,18.41-14.5,23.15-19.8s3.91-14.92,3.91-14.92l-6.98-31.24c0,0,16.75,14.58,24.33,21.21
				c-0.75,7.23-4.52,19.3-4.52,19.3s16.37,7.97,25.08,15.8c1.94,1.75,3.5,3.48,4.42,5.12C161.71,443.73,164.85,463.6,164.85,463.6z"
				/>
			<path class="st3" d="M149.79,436.76c0.27,0.68,1.75,9.82,1.8,10.17c-0.14-0.25-2.41-4.1-4.03-6.27
				c-1.68-2.23-21.9-17.99-22.46-17.99s-6.42,2.79-6.42,2.79l8.5-11.64c0,0,16.37,7.97,25.08,15.8
				C151.15,432.39,149.61,436.31,149.79,436.76z"/>
		</g>
	</g>
	<g id="right_arm">
		<g>
			<g>
				<path class="st8" d="M168.94,422.1c-0.14,0.35-0.54,0.78-1.11,1.25c-2.33,1.94-7.59,4.56-10.5,4.51
					c-3.64-0.07-22.84-19.12-22.84-19.12l16.27-17.93c0,0,0.63,0.69,1.65,1.83c4.03,4.48,14.14,15.79,15.42,17.59
					C169.43,412.48,169.66,420.35,168.94,422.1z"/>
				<path class="st3" d="M167.83,423.35c-2.33,1.94-7.59,4.56-10.5,4.51c-3.64-0.07-22.84-19.12-22.84-19.12l16.27-17.93
					c0,0,0.63,0.69,1.65,1.83c2.21,6.57,1.88,17.14,1.88,17.14l-0.47,4.99C153.81,414.77,162.18,419.94,167.83,423.35z"/>
			</g>
			<g>
				<path class="st9" d="M154.6,388.79c0,0-1.32,10.94-4.87,15.79c-0.04,0.05-0.07,0.09-0.1,0.14c-3.76,4.78-21.17,8.49-21.17,8.49
					s-7.19-12.73-9.74-16.9c-2.54-4.16-10.7-14.18-11.86-18.21c-0.61-2.13-0.85-6.48,0.02-10.47c0.78-3.56,2.45-6.84,5.52-8.05
					c8.58-3.39,13.25,0.56,18.1,4.1C135.35,367.21,154.6,388.79,154.6,388.79z"/>
				<path class="st3" d="M149.63,404.72c-3.76,4.78-21.17,8.49-21.17,8.49s-7.19-12.73-9.74-16.9c-2.54-4.16-10.7-14.18-11.86-18.21
					c-0.61-2.13-0.85-6.48,0.02-10.47c2.55,2.97,9.49,4.34,11.56,6.53c3.05,3.23,0.65,9.3,0.65,9.3L149.63,404.72z"/>
			</g>
		</g>
	</g>
	<g id="hair">
		<g>
			<g>
				<path class="st2" d="M76.35,294.85c-0.16-0.48,2.58-5.72,4.35-6.93s5,2.5,5.88,4.76c0.89,2.26-4.68,3.63-8.06,4.43
					C75.14,297.91,76.35,294.85,76.35,294.85z"/>
				<path class="st2" d="M70.22,301.38c-0.81-0.97-1.13-2.26,0.08-4.11c1.21-1.85,4.84-3.47,5.88-2.9c1.05,0.56,2.82,2.34,2.82,4.03
					s-3.79,5-5.08,5S70.22,301.38,70.22,301.38z"/>
				<path class="st2" d="M73.44,312.66c-2.68,2.68-8.95-3.22-10.32-5.32c-1.37-2.1,5.08-7.09,7.01-7.09c1.93,0,3.55,1.93,3.87,2.66
					C74.33,303.63,73.93,312.18,73.44,312.66z"/>
			</g>
			<g>
				<path class="st8" d="M111.9,331.04l3.87-5.16c0,0,4.43-1.45,5.97,1.29c1.53,2.74-3.14,9.67-9.67,8.87S111.9,331.04,111.9,331.04
					z"/>
				<g>
					<path class="st7" d="M126.33,313.88c-0.02,0.26-0.06,0.51-0.1,0.77c-1.07,5.87-8.92,10.03-8.92,10.03
						c-0.81,4.68-4.84,10.48-4.84,10.48s3.22,7.26,2.9,13.54c-0.32,6.29-10.64,20.96-32.56,20.64
						c-18.48-0.27-32.94-13.36-34.34-26.54c-0.27-2.47-0.07-4.93,0.64-7.32c4.51-15.16,22.25-12.73,22.25-12.73l-0.01-0.02
						c-0.09-0.29-1.66-4.88-1.8-10.34c-0.14-5.28,1.03-11.38,6.12-15.23c14.62-11.1,33.74,3.02,33.74,3.02
						c-1.46-9.35,1.45-13.87,8.06-10.81c6.61,3.07,5.64,21.44,5.64,21.44S126.81,307.59,126.33,313.88z"/>
					<path class="st3" d="M126.22,314.64c-1.07,5.87-8.92,10.03-8.92,10.03c-0.81,4.68-4.84,10.48-4.84,10.48s3.22,7.26,2.9,13.54
						c-0.32,6.29-10.64,20.96-32.56,20.64c-18.48-0.27-32.94-13.36-34.34-26.54c6.45,9.43,23.02,17.48,39.09,12.83
						c19.27-5.56,12.26-31.04-16.2-32.89l-0.01-0.02c-0.09-0.29-1.66-4.88-1.8-10.34c4.63,2.31,13.89,5.82,24.7,3.91
						c15.55-2.74,12.25-14.6,12.25-14.6s4.92,3.23,6.37,10.16c0,0,5.31-5.81,5.31-11.21c0,0,3.47,8.7,2.34,15.32
						C119.55,321.71,124.04,319.25,126.22,314.64z"/>
				</g>
			</g>
		</g>
	</g>
</g>
<g id="layer_x5F_CHARACTER2">
	<g id="Layer_52">
		<g>
			<g>
				<g>
					<path class="st10" d="M231.31,382.93c0,0,0.21-8.16-0.21-11.09c-0.42-2.93-10.25,3.42-5.37,16.04L231.31,382.93z"/>
					<path class="st3" d="M231.31,382.93c0,0,0.21-8.16-0.21-11.09c-0.42-2.93-10.25,3.42-5.37,16.04L231.31,382.93z"/>
					<path class="st10" d="M270.28,409.7c-0.11,0.29-0.3,0.64-0.57,1.06c-2.24,3.44-9.46,10.66-9.46,10.66l-33.61-2.65
						c0,0-2.93-14.27-2.17-24.84c0.27-3.83,1.03-7.18,2.59-9.18c5.86-7.54,24.96-7.26,24.96-7.26c0.34-8.37,6.83-10.95,7.39-9.76
						c0.56,1.19,1.53,23.29,1.53,23.29s8.92,1.11,8.92,2.37C269.86,394.64,271.26,407.05,270.28,409.7z"/>
					<path class="st7" d="M267.51,391.77c-2.87,0.15,1.66,3.83,2.3,4.38c0.64,0.55,0.55-2.34,0.26-3.4
						C269.77,391.68,267.51,391.77,267.51,391.77z"/>
				</g>
			</g>
			<path class="st3" d="M269.71,410.76c-2.24,3.44-9.46,10.66-9.46,10.66l-33.61-2.65c0,0-2.93-14.27-2.17-24.84
				c1.59-2.34,4.34-4.49,9.1-5.11c11.93-1.56,15.17,20.71,16.32,21.87c1.15,1.15,16.53-8.05,18.52-8.68
				C269.67,401.6,269.79,406.89,269.71,410.76z"/>
		</g>
	</g>
	<g id="Layer_50">
		<g>
			<g>
				<path class="st4" d="M268.75,432.33c-0.02,0.13-0.04,0.25-0.08,0.35c-0.3,0.88-1.38,1.08-1.38,1.08s-3-3.18-3.87-4.71
					c-0.87-1.53-2.44-3.87-2.44-3.87l0.94-2.38c0.43-0.16,2.29,0.52,3.82,1.32c0.81,0.43,1.53,0.9,1.9,1.3
					C268.68,426.58,268.86,431.14,268.75,432.33z"/>
				<path class="st3" d="M268.67,432.68c-0.3,0.88-1.38,1.08-1.38,1.08s-3-3.18-3.87-4.71c-0.87-1.53-2.44-3.87-2.44-3.87l0.94-2.38
					c0.43-0.16,2.29,0.52,3.82,1.32c-1.33-0.09-2.83-0.17-2.83,0.04c0,0.37,2.41,3.72,2.41,3.72s0.47,1.61,0.57,1.88
					C265.95,429.9,267.35,431.34,268.67,432.68z"/>
			</g>
			<path class="st4" d="M260.24,421.17c1.07-0.18,2.89,0.03,2.79,2.58c-0.1,2.55-2.06,3.31-3.63,2.61S257.77,421.59,260.24,421.17z"
				/>
		</g>
	</g>
	<g id="Layer_49">
		<g>
			<path class="st10" d="M265.89,493.73c-0.73,0.2-11.81,0.94-12.45,0.1c-0.63-0.84-3.35-22.79-3.35-24.37
				c0-1.56-0.2-29.6,1.88-36.92c2.1-7.32,7.64-9.1,7.64-9.1c1.51,4.45,3.13,14.56,3.75,23.89c0.25,3.6,0.34,7.1,0.22,10.1
				c-0.42,10.77-0.52,29.7-0.52,29.7s3.48,0,4.35,2.06c0.07,0.14,0.11,0.29,0.15,0.46C268.08,492.15,266.62,493.51,265.89,493.73z"
				/>
			<path class="st11" d="M265.89,493.73c-0.73,0.2-11.82,0.94-12.45,0.1c-0.63-0.84-3.35-22.8-3.35-24.37
				c0-1.57-0.2-29.6,1.89-36.92c1.4-4.9,4.34-7.31,6.13-8.38c2.42,15.74,1.92,33.55,0.32,50.39c-0.98,6.55,0.14,15.2,0.14,15.2
				s5.06-0.67,8.84-0.56c0.07,0.14,0.12,0.29,0.15,0.46C268.08,492.15,266.62,493.51,265.89,493.73z"/>
		</g>
	</g>
	<g id="Layer_48">
		<g>
			<path class="st10" d="M260.24,422.04c-0.21,19.38-5.6,46.41-11.6,59.03c-6.07,12.76-18.72,19.14-30.75,19.14
				c-12.04,0-19.35-7.53-16.63-29.08c0.32-2.56,0.77-5.12,1.34-7.67c3.77-17.09,12.55-33.44,21.77-42.67
				c0.69-0.69,1.38-1.34,2.06-1.94C231.63,418.4,246.38,417.66,260.24,422.04z"/>
			<path class="st3" d="M260.24,422.04c-0.21,19.38-5.6,46.41-11.6,59.03c-6.07,12.76-18.72,19.14-30.75,19.14
				c-12.04,0-19.35-7.53-16.63-29.08c0.32-2.56,0.77-5.12,1.34-7.67c1.61,24.73,24.63,29.67,33.6,13.53
				c9.41-16.94,19.25-46.86,10.04-50.83c-5.79-2.5-15.48-4.34-21.87-5.37c0.69-0.69,1.38-1.34,2.06-1.94
				C231.63,418.4,246.38,417.66,260.24,422.04z"/>
		</g>
	</g>
	<g id="Layer_47">
		<g>
			<path class="st10" d="M254.5,496.28c-0.78,0.29-16.2,1.57-16.6,0.98c-0.39-0.58-3.64-3.92-3.64-3.92s-9.63,3.14-12.57-2.95
				c-0.48-0.98-0.58-2.17-0.36-3.49c1.03-6.83,10.13-17.24,16.47-21.85c9.88-7.19,14.24-5.11,14.73,2.55c0.17,2.62,0.12,6-0.02,9.31
				c-0.27,6.33-0.86,12.4-0.86,12.4s3.34,0.1,4.22,1.58C256.77,492.35,255.29,495.98,254.5,496.28z"/>
			<path class="st3" d="M254.5,496.28c-0.78,0.29-16.2,1.57-16.6,0.98c-0.39-0.58-3.64-3.92-3.64-3.92s-9.63,3.14-12.57-2.95
				c-0.48-0.98-0.58-2.17-0.36-3.49c5.46,3.65,20.8-9.47,20.8-9.47s-1.05,12.97-0.26,14.67c0.67,1.45,7.65,0.42,10.65-15.18
				c-0.27,6.33-0.86,12.4-0.86,12.4s3.34,0.1,4.22,1.58C256.77,492.35,255.29,495.98,254.5,496.28z"/>
		</g>
	</g>
	<g id="Layer_46">
		<path class="st4" d="M226.91,416.4c-0.94,0.15-1.67,0.56-1.95,1.6s-0.42,2.58,0.21,2.93s24.34,1.05,35.42,3.77
			c0,0,0.77-0.84,1.05-1.88c0.28-1.05-0.21-3.14-7.46-4.74C248.99,416.92,236.26,414.86,226.91,416.4z"/>
	</g>
	<g id="Layer_45">
		<g>
			<path class="st10" d="M209.73,498.54c-9.83-0.63-20.92-8.27-26.68-29.08c-5.69-20.59-5.03-43.33-2.59-45.03
				c0.02-0.02,0.06-0.03,0.08-0.05c2.51-1.25,10.14-1.05,10.99,1.25c0.84,2.3,0.52,18.61,2.51,35.66c1.7,14.64,7.65,23.73,9.3,26
				c0.27,0.38,0.43,0.57,0.43,0.57c1.88,2.09,5.86,2.51,6.91,5.86C211.71,497.07,209.73,498.54,209.73,498.54z"/>
			<path class="st3" d="M209.73,498.54c-9.83-0.63-20.92-8.27-26.68-29.08c-5.69-20.59-5.03-43.33-2.59-45.03
				c3.26-0.28,6.49,1.43,6.36,2.56c-0.2,1.78-2.61,24.37,3.87,48.85c5.65,21.32,12.89,16.84,12.65,11.46
				c0.27,0.38,0.43,0.57,0.43,0.57c1.88,2.09,5.86,2.51,6.91,5.86C211.71,497.07,209.73,498.54,209.73,498.54z"/>
		</g>
	</g>
</g>
<g id="layer_x5F_GRASS">
	<path class="st0" d="M122.85,494.54c0,0-13.88-5.16-15.25-10.09c-1.38-4.93,7.23,0.11,10.67,5.28c0,0-2.06-3.9-1.26-5.85
		s4.47,3.78,4.47,3.78s-3.44-22.82,6.31-29.25c9.75-6.42,5.51,16.06-0.11,29.82c0,0,5.39-6.65,9.63-4.93
		C141.55,485.02,122.85,494.54,122.85,494.54z"/>
</g>
</svg>
